<?xml version="1.0" standalone="no"?>
<!DOCTYPE svg PUBLIC "-//W3C//DTD SVG 20010904//EN"
 "http://www.w3.org/TR/2001/REC-SVG-20010904/DTD/svg10.dtd">
<svg version="1.0" xmlns="http://www.w3.org/2000/svg"
 width="512.000000pt" height="512.000000pt" viewBox="0 0 512.000000 512.000000"
 preserveAspectRatio="xMidYMid meet">
<metadata>
Created by potrace 1.11, written by Peter Selinger 2001-2013
</metadata>
<g transform="translate(0.000000,512.000000) scale(0.100000,-0.100000)"
fill="#000000" stroke="none">
<path d="M1750 2995 l0 -1765 -395 0 -395 0 0 235 0 235 -350 0 -351 0 3 -367
c3 -357 4 -370 26 -433 31 -84 100 -189 160 -240 63 -54 165 -106 243 -125 95
-22 1246 -22 1334 0 221 56 384 228 426 449 5 28 9 425 9 927 l0 879 395 0
395 0 0 -545 0 -545 355 0 355 0 0 630 c0 533 -2 643 -16 707 -44 212 -181
366 -389 434 -69 23 -79 23 -582 27 l-513 3 0 630 0 629 -355 0 -355 0 0
-1765z"/>
<path d="M4113 1922 l-33 -17 -5 -350 c-3 -192 -8 -420 -11 -506 -7 -155 -6
-157 15 -169 29 -15 97 -4 120 19 10 10 37 71 61 137 68 191 103 268 122 272
31 6 32 -44 2 -201 -31 -169 -36 -280 -15 -320 36 -67 144 -51 228 32 55 54
124 154 168 240 26 53 27 54 7 73 -19 19 -20 19 -68 -69 -30 -54 -75 -115
-115 -156 -59 -62 -70 -68 -100 -65 -33 3 -34 4 -37 53 -2 33 10 101 33 195
58 233 57 323 -2 370 -74 58 -140 -10 -219 -225 l-34 -90 5 75 c14 191 35 599
35 656 l0 64 -62 0 c-41 0 -74 -6 -95 -18z"/>
<path d="M2985 1862 l-50 -17 -7 -110 c-4 -60 -12 -297 -18 -525 -6 -228 -15
-446 -20 -485 -16 -119 -62 -135 -145 -49 -54 55 -95 139 -95 193 0 49 -10 56
-50 36 -41 -21 -44 -33 -26 -104 24 -94 73 -179 143 -252 158 -164 291 -135
332 71 6 30 20 239 31 465 11 226 25 482 32 570 18 242 21 220 -32 222 -25 1
-67 -6 -95 -15z"/>
<path d="M3327 960 c-41 -44 -45 -61 -21 -84 19 -20 35 -20 79 -2 39 17 54 53
39 95 -15 43 -54 40 -97 -9z"/>
<path d="M3617 960 c-41 -44 -45 -61 -21 -84 20 -20 47 -20 84 -1 53 27 52
117 -1 123 -19 2 -35 -7 -62 -38z"/>
<path d="M3913 968 c-40 -42 -48 -71 -28 -92 32 -32 110 -6 121 41 19 75 -39
107 -93 51z"/>
</g>
</svg>
