<?xml version="1.0" standalone="no"?>
<!DOCTYPE svg PUBLIC "-//W3C//DTD SVG 20010904//EN"
 "http://www.w3.org/TR/2001/REC-SVG-20010904/DTD/svg10.dtd">
<svg version="1.0" xmlns="http://www.w3.org/2000/svg"
 width="512.000000pt" height="512.000000pt" viewBox="0 0 512.000000 512.000000"
 preserveAspectRatio="xMidYMid meet">
<metadata>
Created by potrace 1.11, written by Peter Selinger 2001-2013
</metadata>
<g transform="translate(0.000000,512.000000) scale(0.100000,-0.100000)"
fill="#000000" stroke="none">
<path d="M1450 2940 l0 -1320 -290 0 -290 0 0 180 0 180 -265 0 -265 0 0 -257
c0 -187 4 -272 14 -309 33 -123 115 -221 234 -277 l67 -32 505 0 505 0 67 32
c94 44 160 109 206 202 l37 75 3 688 3 688 294 0 295 0 0 -405 0 -405 265 0
265 0 0 473 c0 513 -4 551 -57 649 -55 101 -173 185 -293 208 -29 6 -212 10
-411 10 l-359 0 0 470 0 470 -265 0 -265 0 0 -1320z"/>
<path d="M4237 2147 l-27 -12 -4 -170 c-2 -93 -4 -239 -5 -323 l-1 -153 -49
-49 c-63 -63 -120 -92 -174 -88 -39 3 -43 6 -55 43 -34 101 39 384 106 410 19
7 41 -5 47 -26 8 -23 31 -25 39 -3 17 44 -51 89 -125 82 -118 -12 -205 -137
-216 -313 -5 -65 -12 -92 -39 -145 -47 -89 -68 -114 -88 -107 -14 6 -16 38
-16 307 l0 300 65 0 c61 0 65 1 71 26 9 35 -7 44 -78 44 l-58 0 0 59 c0 33 -4
63 -10 66 -12 7 -97 -29 -122 -52 -10 -9 -18 -30 -18 -49 0 -25 -5 -34 -22
-39 -92 -26 -107 -55 -30 -55 l49 0 -5 -202 c-3 -120 -9 -208 -15 -216 -12
-15 -50 -36 -86 -47 l-24 -7 5 216 c5 244 5 245 -65 225 -40 -11 -36 -3 -110
-218 -42 -126 -64 -158 -89 -133 -18 18 -15 155 7 270 12 65 14 97 7 104 -17
17 -91 15 -102 -2 -6 -9 -8 -90 -4 -207 l7 -191 -28 -54 c-31 -60 -72 -118
-84 -118 -23 0 -34 65 -38 235 -3 99 -8 183 -12 187 -4 4 -29 12 -56 17 -75
14 -85 4 -85 -78 0 -72 -32 -186 -66 -238 -16 -26 -17 -26 -31 -7 -20 26 -11
153 17 226 43 115 104 168 193 168 41 0 46 3 56 30 9 28 8 32 -14 40 -33 12
-117 -4 -175 -33 -56 -29 -121 -108 -150 -184 -33 -85 -39 -224 -12 -285 22
-50 52 -65 96 -48 30 11 54 46 76 111 l17 49 6 -80 c4 -45 12 -93 19 -107 21
-42 64 -68 113 -68 37 0 50 6 80 35 20 19 48 54 62 78 23 39 27 42 43 27 17
-16 47 -19 74 -9 21 8 54 63 87 148 l28 71 1 -123 0 -122 -34 -50 c-92 -133
-111 -295 -43 -358 57 -54 132 -27 177 63 22 45 25 64 28 208 l4 158 59 28
c32 15 61 26 64 23 3 -3 5 -18 5 -34 0 -43 37 -139 63 -166 13 -12 39 -25 59
-28 31 -5 41 -1 75 29 21 20 54 63 73 96 19 33 37 60 40 60 3 0 14 -14 25 -32
11 -17 36 -42 55 -55 29 -20 44 -23 90 -20 70 5 118 29 185 90 l54 49 3 -28
c4 -32 33 -41 77 -23 23 9 34 30 75 143 52 142 71 181 86 172 15 -10 12 -69
-11 -188 -22 -113 -21 -185 1 -212 16 -19 82 -20 118 -1 49 26 122 116 171
214 17 34 20 47 10 58 -6 8 -14 14 -18 14 -3 0 -22 -30 -41 -68 -66 -128 -169
-205 -186 -138 -3 13 9 83 27 157 51 211 41 289 -35 289 -46 0 -76 -37 -117
-145 -18 -47 -33 -84 -34 -82 -1 1 4 99 11 217 7 118 13 248 13 288 l1 72 -42
0 c-24 -1 -55 -6 -71 -13z m-1026 -970 c-6 -81 -12 -112 -25 -125 -15 -15 -18
-15 -27 -2 -18 26 -2 136 27 191 15 27 28 48 30 46 1 -1 -1 -51 -5 -110z"/>
<path d="M2334 2096 l-32 -14 -6 -229 c-9 -374 -23 -630 -35 -652 -13 -23 -41
-27 -71 -11 -31 17 -80 96 -93 150 -8 35 -17 50 -28 50 -102 0 29 -283 156
-336 54 -22 83 -18 120 19 46 46 52 88 70 457 8 173 20 370 25 438 6 68 10
127 10 133 0 14 -80 10 -116 -5z"/>
</g>
</svg>
